<svg xmlns="http://www.w3.org/2000/svg" viewBox="0 0 230.05 263.55"><defs><style>.cls-1,.cls-2{fill:#FFF;}.cls-2{fill-rule:evenodd;}</style></defs><title>Recurso 1</title><g id="Capa_2" data-name="Capa 2"><g id="Capa_1-2" data-name="Capa 1"><path class="cls-1" d="M112.64,119h-2c.53.75,1.19,1.76,1.88,3,.7-1.2,1.38-2.2,1.9-3Z"/><path class="cls-1" d="M88.18,110.08c-.2-.28-.4-.55-.58-.84-1.27.25-2.08.6-2.08.94a3.6,3.6,0,0,1-.6,1.82c.24.24.45.47.69.69A12,12,0,0,1,88.18,110.08Z"/><path class="cls-1" d="M131.62,25.22C125.35,24.62,119,24,112.77,24a152.13,152.13,0,0,0-19.3,1.13.32.32,0,0,0,0,.06L95,28.23a132.59,132.59,0,0,1,17.74-1.18,126.51,126.51,0,0,1,17.43,1.1l1.5-2.92Z"/><path class="cls-1" d="M130.28,12.51a3.08,3.08,0,0,1,4.59,3c-.13,1.2-2,3-4.25,2.61-4.3-.45-4.56-3.19-4.93-5.21-.28,1.47-2.55,3.28-3.73,3.69-2.12.76-6.08.1-6.06-2.79s3.4-3.86,5.19-3.66c-2.92-3.42-5.91-6.8-9-10.1q-4,5-7.81,10.1c1.8-.2,5.15.77,5.19,3.66s-3.92,3.55-6.06,2.79c-1.16-.41-3.44-2.22-3.72-3.69-.38,2-.64,4.76-4.93,5.21-2.27.37-4.14-1.41-4.24-2.61s1-4.43,4.59-3C92.92,9,88.7,8.76,85,8.53c.29.6.59,1.2.9,1.79a1.94,1.94,0,0,1,1.23-.56,1.89,1.89,0,0,1,2.15,1.62,1.91,1.91,0,0,1-1.79,2h0c1.51,2.87,4,7.34,5.51,10.26a178.17,178.17,0,0,1,19.55-1c6.52,0,13.08.59,19.59,1.22,1.46-2.83,4.17-7.42,5.61-10.18h-.1a1.9,1.9,0,0,1-1.78-2,1.89,1.89,0,0,1,2.15-1.6,2,2,0,0,1,1.29.61c.35-.72.71-1.42,1.06-2.13C136.68,8.77,132.48,9,130.28,12.51Zm-17.93-2.39a2.63,2.63,0,0,1-2.73-2.49,2.74,2.74,0,0,1,5.47,0A2.64,2.64,0,0,1,112.35,10.12Z"/><path class="cls-1" d="M88.82,116.2c0-2.24,2.65-6.54,7.75-6.66-1.22-1.7-2.95-4.27-3.75-5.46-3.65-.2-7.21-.39-9.16-.42-12.36-.21-14.84-4.8-14.84-4.8.57,5.55,2.31,8.87,3.5,9.59,2.81,1.72,7,1.16,7,1.16s-4.16,3.72-2.15,7c0,0,.14-1.29,2.15-1.29s5.6-3.16,5.6-5.16,8.18-2,8.18-2-8.75,2.44-8.75,10.19c0,6,7.83,9,10.16,3.19A5.15,5.15,0,0,1,88.82,116.2Z"/><path class="cls-1" d="M108,94.15a.92.92,0,0,0,.29,0Z"/><path class="cls-1" d="M116.42,94.15a.9.9,0,0,1-.28,0Z"/><path class="cls-1" d="M105.48,45.76A2.44,2.44,0,1,1,103,43.33,2.42,2.42,0,0,1,105.48,45.76Z"/><path class="cls-1" d="M119.12,45.76a2.44,2.44,0,1,0,2.42-2.43A2.42,2.42,0,0,0,119.12,45.76Z"/><path class="cls-1" d="M92.39,48c11-8.7,16-9,19.4-9h.84c3.35,0,8.4.29,19.41,9,1.47,1.16,3.7,4.59-2.23,14.54,0,0,5.4-2.94,6.51-4.6S138.14,50,138.14,50c-12.34-11.63-25.47-13.28-25.47-13.28h-.92s-9.44,1.18-19.84,8.63Z"/><path class="cls-1" d="M86.06,55.88A25.22,25.22,0,0,1,92.39,48l-.48-2.66a54.24,54.24,0,0,0-6,5C85.87,52.27,86,54.13,86.06,55.88Z"/><path class="cls-1" d="M134.5,79.87c.69-1.94,1.3-3.91,1.84-5.89h-6.65l.16,5.91Z"/><path class="cls-1" d="M145.05,79.86c.19,3.48.46,13.74-4.29,23.39a52,52,0,0,0,6-.29,115.22,115.22,0,0,0,8-12.79c-3-1.8-3.35-5.1-3.35-8.89,0-2.85,2-5.44,3.89-7.3h-8.66A23.82,23.82,0,0,0,144,79.86h1Z"/><path class="cls-1" d="M134.82,112a20.27,20.27,0,0,1-1.78,1.67c-.32.3-.66.57-1,.85-7.6,6-12.33,7.6-15.65,8,.93,1.11,1.69,2,2.23,2.57A52.44,52.44,0,0,0,135,116c.64-.51,1.28-1.06,1.91-1.62A10.2,10.2,0,0,0,134.82,112Z"/><path class="cls-1" d="M89.67,78.93a67.55,67.55,0,0,1-3.16-13.79s-4.83-27.33,4.94-32.2c0,0-8.54.86-13.36,11.34a7.46,7.46,0,0,0-4.25.27c-1.69.87,3.55,1.3,4.54,10.61s1,11.48,1,11.48-6.24-7.21-7.51-12.91c0,0-.7-5,.43-7.45s-4.82,2.72-5.68,7c0,0-10.06-1.25-13.1,5.41a8,8,0,1,0,14.85,4,7.73,7.73,0,0,0-.07-1.08c3.95,3.8,11.31,9.88,13.55,18.79a39.82,39.82,0,0,0,1.8,5.23A33.83,33.83,0,0,1,89.67,78.93Z"/><path class="cls-1" d="M112.88,141.89c1.11-2.77,3.65-3.29,6.9-4.24,4.38-1.28,3.82-3.16,3.82-3.16s-5.68,2.72-5.81-2c0,0,.71-2.73,3.12-1.16,0,0,1.56,1.3.85,2.3a8.45,8.45,0,0,1,5.24-1.57c3.4,0,6.1-5.74,4.83-7.31,0,0-2.14,3.15-5.53,3.15a24.06,24.06,0,0,1-7.23-1.45s-1.47-1.57-3.81-4.37l.16-.2c11.77-8.47,24.75-29.13,27.87-41.47,2.24-8.91,9.61-15,13.55-18.79a9.64,9.64,0,0,0-.06,1.08,8,8,0,1,0,14.85-4c-3-6.66-13.11-5.41-13.11-5.41-.85-4.31-6.8-9.47-5.66-7s.41,7.45.41,7.45a73.3,73.3,0,0,1-7.51,12.91s0-2.15,1-11.48,6.24-9.74,4.54-10.61a7.46,7.46,0,0,0-4.25-.27c-4.82-10.48-13.35-11.34-13.35-11.34,9.77,4.87,4.93,32.2,4.93,32.2-2.37,21-17.25,42.53-26.06,53.63C106.37,111,97.17,98,91.42,83.64c-1.26.8-5.06,3.31-6.35,5.59.47,1,1,2.09,1.51,3.15.6-.35,2.74-1.18,4-.17,1.66,1.36,2.72,4.24-.57,6.29,5.51,9.23,12.83,18.41,19.73,23.38a2.24,2.24,0,0,1,.17.2c-2.32,2.8-3.79,4.37-3.79,4.37a24.25,24.25,0,0,1-7.24,1.45c-3.4,0-5.53-3.15-5.53-3.15-1.28,1.57,1.42,7.31,4.81,7.31a8.48,8.48,0,0,1,5.26,1.57c-.71-1,.84-2.3.84-2.3a1.91,1.91,0,0,1,3.13,1.16c-.15,4.72-5.81,2-5.81,2s-.58,1.88,3.82,3.16c3.23.95,5.79,1.47,6.9,4.24m2.12-4.24-1.82-1.44-1.8,1.44c-1.89-4.27-.08-7.86,1.8-11.37C114.45,129.79,116.25,133.38,114.38,137.65Z"/><polygon class="cls-1" points="130.55 73.96 117.14 73.9 117.14 73.98 116.56 73.98 116.56 79.85 118.07 79.85 118.07 79.79 130.55 79.92 130.55 73.96"/><path class="cls-1" d="M94.79,69.14l0-.13Z"/><path class="cls-1" d="M106.72,74.06l0-.1a14.72,14.72,0,0,1-7.33-.86c-3.5-1.31-4.43-3.44-4.62-4,.23.75,1.32,4.92-1.53,7.32-3.16,2.66-10.91,9.19-10.7,15.07s4.53,6.75,4.53,6.75,4.23.28,4.51-3c0,0-.15-3-2.73-3a1.94,1.94,0,0,0-2.15,2.36,1.55,1.55,0,0,0,1.73,1.22,1.2,1.2,0,0,0,1.07-1.94s2.43,3-1.86,3.24S82.64,89.31,87,86s9-6.28,18.3-6.12v0h3.23V74Z"/><path class="cls-1" d="M124.18,93.85c-.75-1.77-1-7.86-1-13.44h-3.49c0,5.58-.21,11.67-1,13.44a10.73,10.73,0,0,1-2.29,2.22h10A10.73,10.73,0,0,1,124.18,93.85Z"/><path class="cls-1" d="M119.59,51.17c1.47,3.49,0,14.18,0,14.18a7.17,7.17,0,0,1-1,1.42c-.29.3-.61.58-.93.87h-.17l.09.08s-.06.07-.09.08h.17l.93.88a7.17,7.17,0,0,1,1,1.42s0,1.3.08,3.28h3.61c0-2,.09-3.28.09-3.28a6.46,6.46,0,0,1,1-1.42c.28-.28.59-.58.93-.88h.17s0,0-.08-.08a.6.6,0,0,0,.08-.08h-.17a11.2,11.2,0,0,1-.93-.87,6.46,6.46,0,0,1-1-1.42s-1.48-10.69,0-14.18A10.63,10.63,0,0,1,125.66,49l-4.33,1.45-4-1.45A10.86,10.86,0,0,1,119.59,51.17Zm2,14.32,1.57,2.31-1.57,2.3L120,67.8Z"/><path class="cls-1" d="M105.82,93.85c-.76-1.79-1-8-1-13.63-.84.06-2.48.13-3.48.24,0,5.55-.22,11.62-1,13.39a10.73,10.73,0,0,1-2.29,2.22h10A10.73,10.73,0,0,1,105.82,93.85Z"/><path class="cls-1" d="M101.23,51.17c1.47,3.49,0,14.18,0,14.18a7.6,7.6,0,0,1-1.06,1.42c-.28.3-.6.58-.92.87h-.18l.09.08s-.06.07-.09.08h.18c.32.3.64.6.92.88a7.6,7.6,0,0,1,1.06,1.42s0,1.18.08,3a9.7,9.7,0,0,0,3.61.35c0-2,.08-3.35.08-3.35a7.19,7.19,0,0,1,1.06-1.42c.28-.28.59-.58.92-.88h.18s-.06,0-.09-.08l.09-.08H107c-.33-.29-.64-.57-.92-.87A7.19,7.19,0,0,1,105,65.35s-1.48-10.69,0-14.18A10.86,10.86,0,0,1,107.3,49l-4,1.45L98.93,49A10.63,10.63,0,0,1,101.23,51.17Zm3.38,16.63L103,70.1l-1.59-2.3L103,65.49Z"/><path class="cls-1" d="M83.67,103.09h.6c-4-9.37-4.82-19.88-4.92-21.45.05-.57.18-2.43.53-5.05a34.81,34.81,0,0,0-6.8-9.55C68.39,75,67,79.64,61.55,81.48H60.19l.74.17c-.24.08-.48.14-.74.2h1.36c6.76,2.28,7.25,8.85,15.52,20.58A37.07,37.07,0,0,0,83.67,103.09Z"/><path class="cls-1" d="M94.65,116.24c-.73-.53-1.48-1.11-2.26-1.72-.58-.48-1.14-1-1.69-1.5a5.67,5.67,0,0,0-1.3,3c1.32,1.07,2.65,2,3.95,2.91a52.05,52.05,0,0,0,13,6.32c.53-.6,1.33-1.49,2.33-2.67C105.66,122.35,101.4,121.16,94.65,116.24Z"/><path class="cls-1" d="M162.14,87A3.73,3.73,0,0,0,159,88.64h-.1a.16.16,0,0,1,0,.14,2.9,2.9,0,0,0-.24.64,1.32,1.32,0,0,0-.1.46v.57l.06.07c0,.07,0,.14.05.22a1.25,1.25,0,0,0,.29.79c.05.07.09.14.15.21s.2.29.32.44a1.12,1.12,0,0,0,.21.13s0,0,0,0a.82.82,0,0,0,.37.14,2.2,2.2,0,0,0,.7.15c.23.06.4.06.44,0h0s0,0-.05,0a1.68,1.68,0,0,0-.06-3.35,1.62,1.62,0,0,0-1.16.48.83.83,0,0,1,.17-.38h0v0a1.31,1.31,0,0,1,.52-.45,2.08,2.08,0,0,1,1.25-.41h0a2.13,2.13,0,0,1,.38,0s.07,0,.09,0a2,2,0,0,1,.68.27l.27.14a2.3,2.3,0,0,1,.37.43,2.16,2.16,0,0,1,.4,1.27c0,.09,0,.2,0,.29a10.21,10.21,0,0,1-.05,1.2,1,1,0,0,0,0,.17c-.67,4.12-6,10.19-15,11l0,.08a86.71,86.71,0,0,1-8.82.72h-7.91c-1.25,1.85-2.56,3.67-3.91,5.41.77,0,1.34.07,1.63.07,5.24,0,8,4.38,8,6.66a5.16,5.16,0,0,1-5.72,5.35c2.34,5.81,10.17,2.8,10.17-3.2,0-4.71-3.23-7.46-5.77-8.89h4.76a.87.87,0,0,1,.43.72c0,2,3.6,5.16,5.6,5.16s2.15,1.29,2.15,1.29c2-3.29-2.15-7-2.15-7a10.19,10.19,0,0,0,4.89.4c.24.11,4.11,2,5.12,4.06-.47-1.42-1.52-5.64,1.38-8.66,3.53-3.67,9.76-8.84,6.94-15.68C165.82,89.69,164.81,87,162.14,87Z"/><path class="cls-1" d="M112.53,115.78s1.14-5,6.13-6.16c1.21-1.75,2.46-3.61,3.71-5.54-5.22-.87-6.2-3.58-6.35-5V98.3c0-10-.1-22.37-.21-33.38a7.5,7.5,0,0,1,2.76-4.16,3,3,0,0,0-2.81-.78c-.1-8.74-.18-16.19-.23-20.31a38.79,38.79,0,0,0-6.29,0c0,4.13,0,11.58-.06,20.3a3.07,3.07,0,0,0-2.8.78A7.47,7.47,0,0,1,109.16,65c0,10.92,0,23.12,0,33.1,0,4.2-4.65,6.44-4.65,6.44a4.64,4.64,0,0,1-1.2,0l3.17,4.63C108.29,109.64,111,111.11,112.53,115.78Z"/><path class="cls-1" d="M112.53,9.57c0-.1-.07-.2-.1-.3v.3Z"/><path class="cls-1" d="M112.3,9.58V9.27c0,.1,0,.21-.08.32Z"/><path class="cls-2" d="M57.51,62.05a6.57,6.57,0,0,1,2-4.77,5.55,5.55,0,0,0,1.08,11,5.39,5.39,0,0,0,1.27-.16A6.09,6.09,0,0,1,57.51,62.05Z"/><path class="cls-2" d="M167.71,62.05a6.51,6.51,0,0,0-2-4.77,5.55,5.55,0,0,1-1.06,11,5.32,5.32,0,0,1-1.27-.16A6.1,6.1,0,0,0,167.71,62.05Z"/><path class="cls-1" d="M60.85,29.27a.06.06,0,0,0,0,0,1.68,1.68,0,0,0-3.35.07A1.62,1.62,0,0,0,58,30.54a.86.86,0,0,1-.38-.17v0h0a1.54,1.54,0,0,1-.44-.52,2.26,2.26,0,0,1-.44-1.26h0a3.43,3.43,0,0,1,0-.4.19.19,0,0,0,0-.08A2.54,2.54,0,0,1,57,27.4c0-.09.09-.16.14-.25a1.47,1.47,0,0,1,.44-.37,2.09,2.09,0,0,1,1.26-.41l.31,0a10.23,10.23,0,0,1,1.19,0l.16,0c4,.66,11.32,6.63,12.37,15.11,1.59-.55,1.77-1.08,3.88-.55,2.66-6.36,10.4-9.47,12-10.25-1.42.47-11.83,2.56-14.86-.34-3.67-3.55-9.16-8.6-16-5.77,0,0-2.72,1-2.72,3.67a3.68,3.68,0,0,0,1.67,3.18v.09a.12.12,0,0,1,.13,0,2.8,2.8,0,0,0,.65.24,1.5,1.5,0,0,0,.45.09h.58l0-.05.24-.05a1.27,1.27,0,0,0,.79-.29,1,1,0,0,0,.19-.15,4.5,4.5,0,0,0,.45-.31s.06-.09.13-.22l0,0a1.13,1.13,0,0,0,.14-.36,2.79,2.79,0,0,0,.14-.71c.07-.23.07-.39,0-.45Z"/><path class="cls-1" d="M163.86,29.27s0,0,0,0a1.68,1.68,0,0,1,3.35.07,1.63,1.63,0,0,1-.48,1.16.77.77,0,0,0,.38-.17v0h0a1.68,1.68,0,0,0,.45-.52,2.24,2.24,0,0,0,.42-1.26h0a1.8,1.8,0,0,0,0-.4.59.59,0,0,1,0-.08,2.54,2.54,0,0,0-.27-.69,1.57,1.57,0,0,0-.14-.25,1.42,1.42,0,0,0-.43-.37,2.14,2.14,0,0,0-1.27-.41l-.28,0a10.31,10.31,0,0,0-1.21,0l-.17,0c-4,.66-11.31,6.63-12.37,15.11-1.59-.55-1.76-1.08-3.89-.55-2.64-6.36-10.38-9.47-12-10.25,1.42.47,11.82,2.56,14.84-.34,3.68-3.55,9.17-8.6,16-5.77,0,0,2.72,1,2.72,3.67a3.68,3.68,0,0,1-1.68,3.18v.09s-.08,0-.13,0a2.64,2.64,0,0,1-.65.24,1.5,1.5,0,0,1-.44.09H166l0-.05-.23-.05a2.28,2.28,0,0,1-1-.44l-.44-.31s-.06-.09-.13-.22,0,0,0,0a1.13,1.13,0,0,1-.14-.36,3.27,3.27,0,0,1-.15-.71c-.05-.23-.06-.39,0-.45A0,0,0,0,1,163.86,29.27Z"/><path class="cls-1" d="M109.31,36.39V33s-4.68-1-4.11-2,6.4-.09,7.3-.09,6.66-1,7.19,0S115.51,33,115.51,33v3.41a23.34,23.34,0,0,0-3-.51A27.28,27.28,0,0,0,109.31,36.39Z"/><polygon class="cls-1" points="27.08 261.64 18.53 261.64 18.79 262.92 28.15 262.92 43.28 189.04 41.95 189.04 27.08 261.64"/><polygon class="cls-1" points="75.04 261.64 65.53 261.64 65.53 262.92 76.12 262.92 76.12 189.04 75.04 189.04 75.04 261.64"/><path class="cls-1" d="M135.78,205.2v3.73h-9.56v1.28h10.63v-3.73A17.85,17.85,0,0,0,132.29,194,18.23,18.23,0,0,1,135.78,205.2Z"/><path class="cls-1" d="M135.78,244.21c0,12-9.16,18-17.77,18a18.08,18.08,0,0,1-13.2-5.6,17.86,17.86,0,0,0,14.28,6.89c8.6,0,17.76-6,17.76-18.05V222.24h-1.07Z"/><polygon class="cls-1" points="171.58 261.64 162.06 261.64 162.06 262.92 172.65 262.92 172.65 189.04 171.58 189.04 171.58 261.64"/><polygon class="cls-1" points="228.98 252.32 228.98 261.64 198.52 261.64 198.52 262.92 230.05 262.92 230.05 252.32 228.98 252.32"/><polygon class="cls-1" points="39.53 185.07 28.33 185.07 21.28 227.85 14.96 189.04 14.1 189.04 20.85 230.49 19.83 236.65 19.61 236.65 11.21 185.07 0 185.07 15.04 258.96 24.4 258.96 39.53 185.07"/><rect class="cls-1" x="61.78" y="185.07" width="10.59" height="73.89"/><path class="cls-1" d="M133.1,241.53V218.27h-19v9.36h8.38v2.67h-4.63v1.29h4.63v9.94c0,5.08-3.29,7.45-7.13,7.45a8.06,8.06,0,0,1-2.93-.52,9.18,9.18,0,0,1-.48-3v-39c0-5.11,3.32-7.49,7.16-7.49a7.86,7.86,0,0,1,2.92.55,9,9,0,0,1,.46,3v3.73H133.1v-3.73c0-12.05-9.16-18.07-17.76-18.07s-17.76,6-17.76,18.07v39c0,12,9.15,18,17.76,18S133.1,253.56,133.1,241.53Zm-24.91,0v-39c0-5.11,3.31-7.5,7.15-7.5a6.72,6.72,0,0,1,6.26,3.52,7.66,7.66,0,0,0-3.59-.84c-3.84,0-7.15,2.39-7.15,7.5v39a8.34,8.34,0,0,0,.88,3.94C109.64,247.06,108.19,244.89,108.19,241.53Z"/><rect class="cls-1" x="158.31" y="185.07" width="10.6" height="73.89"/><polygon class="cls-1" points="226.3 248.36 209.11 248.36 209.11 189.04 208.04 189.04 208.04 248.36 205.36 248.36 205.36 185.07 194.77 185.07 194.77 258.96 226.3 258.96 226.3 248.36"/><path class="cls-1" d="M20.11,153.88c-.54,0-.81.23-.81.67v11.06a3.35,3.35,0,0,0,1.49,3.19,8.81,8.81,0,0,0,4.37.87,8.83,8.83,0,0,0,4.37-.87A3.35,3.35,0,0,0,31,165.61V154.55c0-.44-.36-.67-1.1-.67v-.66h5.9v.66c-.59,0-.89.23-.89.67v10.88a9,9,0,0,1-.62,3.59,5.23,5.23,0,0,1-1.88,2.27,7.66,7.66,0,0,1-3.12,1.15,28.61,28.61,0,0,1-4.3.29,28.56,28.56,0,0,1-4.29-.29,7.6,7.6,0,0,1-3.12-1.15A5.17,5.17,0,0,1,15.72,169a8.85,8.85,0,0,1-.63-3.59V154.55c0-.44-.34-.67-1-.67v-.66h6Z"/><path class="cls-1" d="M42.35,172c.46,0,.7-.22.7-.67V154.55a.61.61,0,0,0-.7-.67v-.66h6.3v.66c-.2,0-.29.13-.29.37s.24.54.73,1l10.59,11V154.55c0-.44-.32-.67-1-.67v-.66h5.57v.66c-.47,0-.7.23-.7.67v16.74c0,.45.23.67.7.67v.66h-6V172c.32,0,.48-.11.48-.34s-.19-.45-.59-.84L47,159.05v12.24c0,.45.28.67.84.67v.66H42.35Z"/><path class="cls-1" d="M71.48,172c.64,0,1-.22,1-.67V154.55c0-.44-.32-.67-1-.67v-.66H77.6v.66c-.64,0-1,.23-1,.67v16.74c0,.45.32.67,1,.67v.66H71.48Z"/><path class="cls-1" d="M105.19,153.88a1.16,1.16,0,0,0-1.07.54,7.66,7.66,0,0,0-.48.87l-6.53,14.34c-.22.5-.4.89-.55,1.18a1.71,1.71,0,0,0-.22.63.49.49,0,0,0,.09.3,1.79,1.79,0,0,0,.24.22v.66H91V172a.52.52,0,0,0,.33-.52,2.37,2.37,0,0,0-.28-.76l-.68-1.42-6.64-14.42a1.21,1.21,0,0,0-.52-.59,5.72,5.72,0,0,0-.95-.37v-.66h6.6v.66a1.13,1.13,0,0,0-.5.13.53.53,0,0,0-.24.5,2.39,2.39,0,0,0,.31,1l.76,1.55,4.72,10.15,4.61-10c.3-.64.57-1.21.83-1.71a3,3,0,0,0,.39-1.05c0-.4-.35-.6-1-.6v-.66h6.45Z"/><path class="cls-1" d="M128.17,157.2a.66.66,0,0,0-.32-.6,2.06,2.06,0,0,0-1.09-.21H114.82V161H122a2.54,2.54,0,0,0,1.15-.21c.27-.13.4-.48.4-1h.67v5.75h-.67c0-.56-.13-.92-.4-1.08a2.26,2.26,0,0,0-1.15-.24h-7.22v5.09h12.31A1.53,1.53,0,0,0,128,169a.84.84,0,0,0,.35-.7h.66v5h-.66c0-.37-.12-.58-.35-.63a4.6,4.6,0,0,0-.91-.07H110V172a.73.73,0,0,0,.46-.17.63.63,0,0,0,.2-.5V154.55a.63.63,0,0,0-.2-.5.73.73,0,0,0-.46-.17v-.66h16.81a1.85,1.85,0,0,0,1.09-.24.76.76,0,0,0,.32-.64h.66v4.86Z"/><path class="cls-1" d="M147.68,153.22a15.65,15.65,0,0,1,3.2.31,7.27,7.27,0,0,1,2.47,1,4.66,4.66,0,0,1,1.59,1.77,5.86,5.86,0,0,1,.55,2.67,4.74,4.74,0,0,1-1.44,3.73,7.66,7.66,0,0,1-3.87,1.73l4.91,7a1,1,0,0,0,.61.44,3,3,0,0,0,.64.08v.66h-6.9V172a1.43,1.43,0,0,0,.58-.11q.24-.12.24-.3a.83.83,0,0,0-.15-.42c-.1-.16-.25-.38-.44-.65l-4.06-5.75h-5.27v6.56a.57.57,0,0,0,.24.5,1.56,1.56,0,0,0,.86.17v.66h-6.38V172c.71,0,1.07-.22,1.07-.67V154.55c0-.44-.36-.67-1.07-.67v-.66Zm-1,8.63a10.49,10.49,0,0,0,2.21-.2,4.07,4.07,0,0,0,1.4-.57,2.25,2.25,0,0,0,.74-.87,2.59,2.59,0,0,0,.22-1.09,2.66,2.66,0,0,0-.22-1.09,2.15,2.15,0,0,0-.74-.86,3.72,3.72,0,0,0-1.4-.57,9.79,9.79,0,0,0-2.21-.21h-6.38v5.46Z"/><path class="cls-1" d="M164.09,166.53l.36.19a1.15,1.15,0,0,0,.15.59,2.7,2.7,0,0,0,1,.87,10.33,10.33,0,0,0,1.73.75,15.75,15.75,0,0,0,2.05.54,10.79,10.79,0,0,0,1.91.2c.42,0,1,0,1.63-.09a9.36,9.36,0,0,0,1.95-.39,5.71,5.71,0,0,0,1.66-.81,1.61,1.61,0,0,0,.7-1.37,1.37,1.37,0,0,0-.64-1.25,4.7,4.7,0,0,0-1.7-.59,19.44,19.44,0,0,0-2.4-.24c-.89,0-1.81-.09-2.74-.16a27.17,27.17,0,0,1-2.75-.37,7.94,7.94,0,0,1-2.4-.87,4.82,4.82,0,0,1-1.7-1.66,5.63,5.63,0,0,1-.11-5,5.49,5.49,0,0,1,1.64-2,9.11,9.11,0,0,1,2.81-1.39,13.51,13.51,0,0,1,4-.53,16.8,16.8,0,0,1,3.39.3,23.77,23.77,0,0,1,2.49.62q1,.33,1.77.63a3.22,3.22,0,0,0,1.2.29,1,1,0,0,0,.74-.22l.44.3-2.54,4.61-.37-.15a2,2,0,0,0-.3-.85,3.11,3.11,0,0,0-1-.86,8,8,0,0,0-1.61-.76,13.72,13.72,0,0,0-2-.54,11.84,11.84,0,0,0-2.14-.2,10.93,10.93,0,0,0-1.68.13,8.27,8.27,0,0,0-1.56.39,3.5,3.5,0,0,0-1.17.68,1.39,1.39,0,0,0-.46,1,1.52,1.52,0,0,0,.65,1.33,4.61,4.61,0,0,0,1.7.66,15.55,15.55,0,0,0,2.39.3l2.75.18a24.93,24.93,0,0,1,2.75.39,7.89,7.89,0,0,1,2.39.88,4.8,4.8,0,0,1,1.7,1.65,5,5,0,0,1,.65,2.69,4.7,4.7,0,0,1-1,3.13,7.2,7.2,0,0,1-2.52,1.92,11.34,11.34,0,0,1-3.27.94,24.09,24.09,0,0,1-3.26.24,21.57,21.57,0,0,1-3.52-.24,12.43,12.43,0,0,1-2.36-.59,13.65,13.65,0,0,1-1.5-.63,2.27,2.27,0,0,0-1-.27.63.63,0,0,0-.48.29l-.51-.29Z"/><path class="cls-1" d="M199.16,153a14.66,14.66,0,0,1,4.13.61,12.81,12.81,0,0,1,3.84,1.82,9.83,9.83,0,0,1,2.83,3.08,9.32,9.32,0,0,1,0,8.82,9.83,9.83,0,0,1-2.83,3.08,12,12,0,0,1-3.84,1.77,15.78,15.78,0,0,1-8.26,0,12,12,0,0,1-3.84-1.77,10,10,0,0,1-2.84-3.08,9.39,9.39,0,0,1,0-8.82,10,10,0,0,1,2.84-3.08,12.81,12.81,0,0,1,3.84-1.82A14.66,14.66,0,0,1,199.16,153Zm0,3.39a9.06,9.06,0,0,0-2.8.45,8.24,8.24,0,0,0-2.53,1.27,6.55,6.55,0,0,0-1.83,2,5.81,5.81,0,0,0,0,5.53,6.62,6.62,0,0,0,1.83,2,8.49,8.49,0,0,0,2.53,1.28,9.13,9.13,0,0,0,5.6,0,8.49,8.49,0,0,0,2.53-1.28,6.47,6.47,0,0,0,1.82-2,5.81,5.81,0,0,0,0-5.53,6.4,6.4,0,0,0-1.82-2,8.24,8.24,0,0,0-2.53-1.27A9.1,9.1,0,0,0,199.16,156.39Z"/></g></g></svg>