<?xml version="1.0" encoding="UTF-8"?>
<svg id="Capa_2" data-name="Capa 2" xmlns="http://www.w3.org/2000/svg" xmlns:xlink="http://www.w3.org/1999/xlink" viewBox="0 0 202.48 54.72">
  <defs>
    
    <linearGradient id="Degradado_sin_nombre_19" data-name="Degradado sin nombre 19" x1="91.69" y1="124.98" x2="253.17" y2="-79.27" gradientUnits="userSpaceOnUse">
      <stop offset="0" stop-color="#132f60"></stop>
      <stop offset="1" stop-color="#06c"></stop>
    </linearGradient>
    <linearGradient id="Degradado_sin_nombre_19-2" data-name="Degradado sin nombre 19" x1="91.18" y1="124.58" x2="197.62" y2="-10.05" xlink:href="#Degradado_sin_nombre_19"></linearGradient>
    <linearGradient id="Degradado_sin_nombre_19-3" data-name="Degradado sin nombre 19" x1="47.56" y1="90.08" x2="209.03" y2="-114.16" xlink:href="#Degradado_sin_nombre_19"></linearGradient>
    <linearGradient id="Degradado_sin_nombre_19-4" data-name="Degradado sin nombre 19" x1="73.75" y1="110.79" x2="235.23" y2="-93.46" xlink:href="#Degradado_sin_nombre_19"></linearGradient>
    <linearGradient id="Degradado_sin_nombre_19-5" data-name="Degradado sin nombre 19" x1="106.83" y1="136.94" x2="268.3" y2="-67.3" xlink:href="#Degradado_sin_nombre_19"></linearGradient>
    <linearGradient id="Degradado_sin_nombre_19-6" data-name="Degradado sin nombre 19" x1="14.85" y1="64.22" x2="176.32" y2="-140.02" xlink:href="#Degradado_sin_nombre_19"></linearGradient>
    <linearGradient id="Degradado_sin_nombre_19-7" data-name="Degradado sin nombre 19" x1="12.33" y1="62.24" x2="173.81" y2="-142.01" xlink:href="#Degradado_sin_nombre_19"></linearGradient>
    <linearGradient id="Degradado_sin_nombre_19-8" data-name="Degradado sin nombre 19" x1="-4.09" y1="49.25" x2="157.39" y2="-154.99" xlink:href="#Degradado_sin_nombre_19"></linearGradient>
  </defs>
  <g id="Capa_1-2" data-name="Capa 1">
    <g>
      <g>
        <path class="cls-2" d="M177.22,47.77c.2.44.31.92.31,1.43,0,1.92-1.54,3.47-3.46,3.49-.01,0-.02,0-.03,0h-9.36c-1.36,0-2.53-.77-3.11-1.9l-5.06-11.98-1.38-3.29c-.16-.42-.32-.86-.45-1.29-.88-2.7-1.32-5.51-1.33-8.31,0-2.94.5-5.89,1.46-8.7h0c.47-1.7,2.6-6.09,4.43-9.72l.82-1.6c.57-1.12,1.07-2.09,1.44-2.79.16-.3.29-.55.38-.74,0,0,.18-.34.19-.37,0,0,0,0,0,0,.61-1.01,1.72-1.68,2.99-1.68h9.05s.02,0,.03,0c1.91.02,3.46,1.57,3.46,3.49,0,.32-.04.64-.13.93l-8.76,17.68h0s0,0,0,0c0,0,0,0,0,0h0s-.03.06-.05.11c-.29.62-1.5,3.57-.27,7.06l.17.43.59,1.4,7.96,16.12s.11.23.11.23Z"></path>
        <path class="cls-4" d="M171.39,23.13v.02s0-.01,0-.01c0,0,0,0,0,0Z"></path>
      </g>
      <path class="cls-8" d="M124.36,25.2c-.1-1.17-.27-2.35-.52-3.49-.25-1.19-.59-2.35-.99-3.49-.29-.81-.61-1.62-.98-2.4-.17-.36-.35-.73-.55-1.09-.63-1.21-1.36-2.39-2.16-3.49-.26-.35-.52-.7-.79-1.04-.29-.35-.57-.69-.87-1.02-.43-.5-.9-.98-1.37-1.43-.4-.39-.83-.78-1.26-1.15-1-.86-2.07-1.64-3.19-2.33-.1-.08-.21-.14-.31-.2-1.12-.69-2.29-1.29-3.51-1.81-1.13-.5-2.31-.9-3.51-1.22-.34-.09-.69-.18-1.03-.26-.61-.14-1.23-.26-1.84-.36-.21-.04-.42-.07-.64-.09-1.16-.17-2.33-.25-3.51-.26-1.16,0-2.33.06-3.49.21-.96.12-1.93.29-2.88.51-.21.04-.42.09-.63.14-1.2.31-2.37.69-3.51,1.16-1.13.46-2.24,1-3.31,1.62-.07.03-.13.06-.2.1-.26.16-.51.3-.76.47-.95.6-1.88,1.26-2.75,1.98-.59.47-1.15.98-1.68,1.5-.64.63-1.25,1.26-1.82,1.94-.43.51-.83,1.02-1.23,1.55-.81,1.11-1.54,2.28-2.18,3.49-.04.07-.07.13-.1.2-.43.85-.82,1.72-1.17,2.62-.08.22-.17.46-.25.68-.4,1.15-.74,2.31-.99,3.49-.23,1.15-.42,2.32-.51,3.49-.09,1.16-.1,2.32-.05,3.49.05,1.17.18,2.33.39,3.49.21,1.17.5,2.35.86,3.49.01.04.03.08.04.12.36,1.16.82,2.28,1.34,3.36.1.25.22.48.34.72.5.95,1.04,1.89,1.66,2.78.56.86,1.19,1.67,1.85,2.45.3.35.61.7.94,1.04.79.86,1.66,1.65,2.57,2.4.47.38.94.74,1.42,1.09.33.23.65.46.98.66.36.23.73.47,1.11.68,1.12.66,2.29,1.24,3.51,1.73.36.14.73.29,1.09.42.8.29,1.6.52,2.41.73,1.15.3,2.32.52,3.51.66,1.09.13,2.19.2,3.3.2h.2c.87,0,1.76-.05,2.63-.14.29-.03.59-.06.87-.1,1.19-.17,2.36-.4,3.51-.72.66-.18,1.32-.39,1.95-.63.52-.18,1.04-.39,1.55-.6,1.21-.52,2.38-1.12,3.51-1.81.56-.34,1.11-.7,1.64-1.08.64-.46,1.26-.94,1.86-1.46.55-.46,1.07-.94,1.58-1.45.2-.2.38-.39.56-.59.48-.5.94-1.02,1.37-1.55.51-.63.99-1.28,1.43-1.94.74-1.11,1.41-2.27,1.99-3.49l.08-.16c.26-.57.51-1.16.74-1.76.2-.52.38-1.04.55-1.56.36-1.15.65-2.32.86-3.49.21-1.16.34-2.32.39-3.49.04-.87.04-1.75,0-2.62-.01-.29-.04-.59-.05-.87ZM97.21,39.8c-6.78,0-12.26-5.49-12.26-12.26s5.49-12.26,12.26-12.26,12.26,5.49,12.26,12.26-5.49,12.26-12.26,12.26Z"></path>
      <path class="cls-5" d="M148.29,4.05v45.4c0,1.92-1.54,3.47-3.46,3.49-.01,0-.02,0-.03,0h-9.22c-1.36,0-2.53-.77-3.11-1.9-.06-.13-.12-.26-.17-.39l-.03-.07c-.08-.23-.14-.48-.16-.73-.02-.13-.02-.26-.02-.4V4.05c0-.14,0-.27.02-.4.04-.36.14-.71.28-1.03,0,0,0,0,0,0,.06-.13.12-.25.19-.36,0,0,0,0,0,0,.61-1.01,1.72-1.68,2.99-1.68h9.22s.02,0,.03,0c1.91.02,3.46,1.57,3.46,3.49Z"></path>
      <path class="cls-3" d="M202.48,3.49v45.4c0,1.92-1.54,3.47-3.46,3.49-.01,0-.02,0-.03,0h-9.22c-1.36,0-2.53-.77-3.11-1.9-.06-.13-.12-.26-.17-.39l-.03-.07c-.08-.23-.14-.48-.16-.73-.02-.13-.02-.26-.02-.4V3.49c0-.14,0-.27.02-.4.04-.36.14-.71.28-1.03,0,0,0,0,0,0,.06-.13.12-.25.19-.36,0,0,0,0,0,0,.61-1.01,1.72-1.68,2.99-1.68h9.22s.02,0,.03,0c1.91.02,3.46,1.57,3.46,3.49Z"></path>
      <path class="cls-6" d="M69.97,2.86s0,0,0,0h0s-.14-.4-.14-.4c0,0,0,0,0,0,0,0,0,0,0,0l-.03-.09s0,0,0,0c-.03-.07-.07-.14-.11-.21h0s-.02-.03-.03-.05c-.03-.05-.07-.11-.1-.16-.02-.03-.05-.07-.07-.1-.01-.02-.03-.04-.05-.06-.02-.03-.05-.07-.08-.1-.05-.07-.11-.13-.17-.19-.02-.02-.04-.05-.07-.07-.04-.04-.08-.07-.12-.11,0,0,0,0,0,0-.04-.03-.07-.06-.11-.09-.04-.03-.08-.07-.12-.1-.04-.03-.09-.06-.13-.09-.03-.02-.05-.04-.08-.05-.03-.02-.05-.03-.08-.05-.01,0-.02-.01-.04-.02-.01,0-.02-.01-.04-.02,0,0-.01,0-.02-.01-.02-.01-.04-.03-.07-.04,0,0-.01,0-.02-.01-.02-.01-.04-.02-.06-.03-.04-.02-.07-.04-.11-.05,0,0-.02,0-.03-.01-.02,0-.03-.01-.04-.02,0,0,0,0,0,0-.06-.02-.11-.05-.17-.07-.05-.02-.11-.04-.16-.05-.04-.01-.07-.02-.11-.03-.02,0-.03,0-.05-.01-.05-.01-.11-.03-.16-.04-.05,0-.09-.02-.14-.03-.02,0-.03,0-.05,0-.05,0-.1-.01-.15-.02-.06,0-.12-.01-.17-.01h0c-.06,0-.12,0-.18,0h-9.89c-1.89,0-3.43,1.54-3.43,3.43,0,.21.02.42.06.63.03.15.07.3.11.45,0,0,0,0,0,.01l.06.16s0,.01,0,.02l3.53,9.67s0,.01,0,.02c.01.04.03.08.04.12,0,0,0,.01,0,.02.02.04.03.09.05.13h0s.01.03.01.03c.53,1.25,1.77,2.13,3.21,2.13,1.08,0,2.05-.49,2.69-1.27,0,0,.01-.01.02-.02.14-.19.26-.4.36-.61.03-.06.05-.12.08-.18.07-.16.14-.31.21-.47,1.3-2.88,2.96-5.56,4.92-7.99.19-.23.38-.47.57-.69.49-.59.78-1.34.78-2.17,0-.33-.05-.65-.14-.96Z"></path>
      <path class="cls-7" d="M57.16,42.98c0,.22,0,.43-.02.64h0c-.21,3.77-2.24,7.06-5.23,8.99-1.19.77-2.53,1.32-3.96,1.61-.22.04-.45.07-.69.07-1.11,0-2.03-.4-2.68-1.3-.28-.38-.6-1.15-.6-1.15l-6.24-17.11L26.93,5.11s0-.01,0-.02l-.06-.16s0,0,0-.01c-.05-.14-.09-.29-.11-.45-.04-.2-.06-.41-.06-.63,0-1.89,1.53-3.43,3.43-3.43h9.88c1.36,0,2.53.79,3.09,1.94,0,0,0,0,0,0l.23.64s0,0,0,0c0,0,0,0,0,0h0s13.33,36.58,13.35,36.65h0c.32,1.05.49,2.17.49,3.33Z"></path>
      <path class="cls-1" d="M30.47,42.98c0,.22,0,.43-.02.64h0c-.21,3.77-2.24,7.06-5.23,8.99-1.19.77-2.53,1.32-3.96,1.61-.22.04-.45.07-.69.07-1.11,0-2.03-.4-2.68-1.3-.28-.38-.6-1.15-.6-1.15l-6.24-17.11L.24,5.11s0-.01,0-.02l-.06-.16s0,0,0-.01c-.05-.14-.09-.29-.11-.45-.04-.2-.06-.41-.06-.63C0,1.95,1.53.41,3.43.41h9.88c1.36,0,2.53.79,3.09,1.94,0,0,0,0,0,0l.23.64s0,0,0,0c0,0,0,0,0,0h0s13.33,36.58,13.35,36.65h0c.32,1.05.49,2.17.49,3.33Z"></path>
    </g>
  </g>
</svg>